<?xml version="1.0" encoding="utf-8"?>
<!-- Generator: Adobe Illustrator 18.0.0, SVG Export Plug-In . SVG Version: 6.00 Build 0)  -->
<!DOCTYPE svg PUBLIC "-//W3C//DTD SVG 1.1//EN" "http://www.w3.org/Graphics/SVG/1.1/DTD/svg11.dtd">
<svg version="1.1" id="Layer_1" xmlns="http://www.w3.org/2000/svg" xmlns:xlink="http://www.w3.org/1999/xlink" x="0px" y="0px"
	 viewBox="0 0 100 32.3" enable-background="new 0 0 100 32.3" xml:space="preserve">
<g>
	<g>
		<path fill="#336699" d="M10.4,17c-0.2,0.6-0.5,1.1-0.9,1.5C9,19,8.6,19.4,8,19.7c-0.5,0.3-1.1,0.4-1.8,0.4c-0.4,0-0.8-0.1-1.2-0.2
			C5,19.9,5,19.9,5,19.8c0-0.1,0-0.1,0-0.2c0-0.1,0-0.1,0.1-0.2c0,0,0.1-0.1,0.2-0.1c0.1,0,0.1,0,0.2,0c0.1,0,0.1,0,0.2,0
			c1,0,1.8-0.3,2.4-0.8c0.6-0.6,0.8-1.3,0.8-2.3c0-0.4-0.1-0.9-0.2-1.3C8.4,14.4,8.3,14,8,13.7C7.7,13.3,7.4,13,7,12.8
			c-0.4-0.2-0.8-0.3-1.3-0.3c-0.2,0-0.5,0-0.7,0.1c-0.2,0.1-0.4,0.1-0.6,0.2v11.7c0,0.1,0,0.2,0,0.3c0,0.2,0.1,0.3,0.1,0.5
			c0,0.2,0.1,0.3,0.1,0.5c0,0.1,0.1,0.2,0.1,0.3c0.1,0.1,0.2,0.1,0.3,0.1c0.1,0,0.3,0,0.4,0.1c0.2,0,0.4,0,0.5,0.1
			c0.1,0,0.2,0.1,0.3,0.3c0,0.1,0,0.1,0,0.2c0,0-0.1,0.1-0.2,0.1c-0.8,0-1.6,0-2.5,0c-0.8,0-1.6,0-2.5,0c-0.1,0-0.2-0.1-0.2-0.2
			c0-0.1,0.1-0.2,0.2-0.2c0.3-0.1,0.5-0.1,0.7-0.2C2,26.1,2.1,26,2.2,25.9c0.1-0.1,0.1-0.3,0.1-0.5c0-0.2,0-0.5,0-0.8V13.2
			c0-0.2,0-0.4-0.1-0.5c0-0.1-0.1-0.2-0.2-0.3c-0.1-0.1-0.2-0.1-0.3-0.1c-0.1,0-0.2,0-0.3-0.1c-0.2,0-0.3-0.1-0.5-0.1
			c-0.2,0-0.3-0.1-0.3-0.3c0-0.1,0-0.1,0-0.2c0-0.1,0.1-0.1,0.2-0.1h0.4c0.2,0,0.4,0,0.7,0c0.2,0,0.4,0,0.7,0c0.2,0,0.4,0,0.6,0
			c0.2,0,0.4,0,0.6,0h1.6c0.6,0,1.2,0,1.9,0.1c0.6,0.1,1.2,0.2,1.6,0.5c0.5,0.2,0.9,0.6,1.2,1.1c0.3,0.5,0.4,1.1,0.4,2
			C10.7,15.9,10.6,16.5,10.4,17z"/>
		<path fill="#336699" d="M24.7,25.7c-0.3,0-0.5,0-0.8,0c-0.3,0-0.5,0-0.7,0h-1c-0.2,0-0.5,0-0.9,0c-0.4,0-0.6-0.1-0.8-0.2l0.2-0.3
			c0.1,0.1,0.2,0.1,0.2,0.1c0.1,0,0.2,0,0.3-0.1c0.1-0.1,0.1-0.2,0.2-0.3c0-0.1,0.1-0.3,0.1-0.4c0-0.1,0-0.3,0-0.4v-4.1h-6.7v4
			c0,0.5,0.1,0.9,0.3,1.1c0.2,0.2,0.5,0.3,1,0.2l0,0.4c-0.4,0-0.7,0-1,0c-0.3,0-0.7,0-1,0c-0.4,0-0.7,0-1,0c-0.3,0-0.7,0-1,0
			c-0.1,0-0.2-0.1-0.2-0.2c0-0.1,0-0.2,0.2-0.2c0.2,0,0.4-0.1,0.5-0.1c0.1,0,0.2-0.1,0.3-0.2c0.1-0.1,0.1-0.2,0.1-0.4
			c0-0.1,0-0.4,0-0.6v-8.3c0-0.3-0.1-0.5-0.2-0.6c-0.1-0.1-0.3-0.1-0.4-0.1c-0.1,0-0.3,0-0.4-0.1c-0.1,0-0.2-0.1-0.3-0.2
			c-0.1-0.1-0.1-0.1,0-0.2c0-0.1,0.1-0.1,0.2-0.1c0.7,0,1.3,0,2,0c0.7,0,1.3,0,2,0.1c0.1,0,0.2,0.1,0.2,0.2c0,0.1-0.1,0.2-0.2,0.2
			c-0.2,0-0.4,0.1-0.7,0.2c-0.2,0.1-0.3,0.3-0.3,0.6v3.4h6.7v-3.4c0-0.2,0-0.3-0.1-0.4c0-0.1-0.1-0.2-0.2-0.2
			C21.2,15,21.1,15,21.1,15c-0.1,0-0.2,0-0.3,0c-0.2,0-0.3,0-0.4-0.1c-0.1,0-0.2-0.1-0.2-0.2c0-0.1,0-0.2,0.2-0.2c0.7,0,1.3,0,2,0
			c0.7,0,1.3,0,2,0.1c0.1,0,0.2,0.1,0.2,0.2c0,0.1-0.1,0.2-0.2,0.2c-0.3,0-0.5,0.1-0.7,0.2c-0.2,0.1-0.3,0.3-0.3,0.6v8.2
			c0,0.1,0,0.1,0,0.3c0,0.1,0,0.2,0.1,0.4c0,0.1,0.1,0.2,0.1,0.4c0,0.1,0.1,0.2,0.1,0.2c0.1,0,0.1,0,0.2,0c0.1,0,0.1,0,0.2,0
			c0.1,0,0.2,0,0.4,0c0.1,0,0.3,0.1,0.4,0.2L24.7,25.7z"/>
		<path fill="#336699" d="M30.2,25.7c-0.2,0-0.5,0-0.7,0c-0.2,0-0.5,0-0.7,0l-0.8,0c-0.1,0-0.2,0-0.4,0c-0.2,0-0.3,0-0.5,0
			c-0.2,0-0.4,0-0.5,0c-0.2,0-0.3,0-0.4-0.1c-0.1,0-0.2-0.1-0.1-0.3c0.1-0.1,0.1-0.2,0.3-0.2c0.1,0,0.1,0,0.2,0c0,0,0.1,0,0.1,0
			c0.1,0,0.2,0,0.3-0.1c0.1-0.1,0.1-0.2,0.2-0.3c0-0.1,0.1-0.3,0.1-0.4c0-0.1,0-0.3,0-0.4v-8.3c0-0.3-0.1-0.5-0.3-0.6
			c-0.2-0.1-0.5-0.2-0.7-0.2c-0.1,0-0.2-0.1-0.2-0.2c0-0.1,0.1-0.2,0.2-0.2c0.3,0,0.7,0,1,0c0.3,0,0.6,0,1,0c0.3,0,0.6,0,0.9,0
			c0.3,0,0.6,0,0.9,0c0.1,0,0.2,0.1,0.2,0.2c0,0.1-0.1,0.2-0.2,0.2c-0.3,0-0.5,0.1-0.7,0.2c-0.2,0.1-0.3,0.3-0.3,0.6v8.2
			c0,0.1,0,0.1,0,0.2c0,0.1,0,0.2,0.1,0.3c0,0.1,0.1,0.2,0.1,0.3c0,0.1,0.1,0.2,0.1,0.2c0,0,0.1,0,0.2,0c0.1,0,0.2,0,0.2,0
			c0.1,0,0.3,0,0.4,0c0.1,0,0.2,0.1,0.3,0.2L30.2,25.7z"/>
		<path fill="#336699" d="M39.6,23.6c0,0,0,0.1,0,0.1c0,0.3-0.1,0.5-0.1,0.8c0,0.3-0.1,0.5-0.2,0.8c0,0,0.1,0,0.1,0c0,0,0,0,0.1,0
			l-0.1,0.4c-0.3,0-0.6,0-0.9-0.1c-0.3,0-0.6,0-0.9,0c-0.3,0-0.7,0-1,0c-0.3,0-0.6,0-1,0c-0.3,0-0.5,0-0.8,0c-0.3,0-0.6,0-0.8,0
			c-0.7,0-1.4,0-2.1-0.1c-0.1,0-0.2-0.1-0.2-0.2c0-0.1,0.1-0.2,0.2-0.2c0.4,0,0.6-0.1,0.7-0.4c0.1-0.2,0.2-0.5,0.2-0.9v-8.3
			c0-0.3-0.1-0.5-0.2-0.6c-0.1-0.1-0.3-0.1-0.4-0.1c-0.1,0-0.3,0-0.4-0.1c-0.1,0-0.2-0.1-0.3-0.2c0-0.1,0-0.1,0-0.2
			c0-0.1,0.1-0.1,0.2-0.1h1.1c0.2,0,0.4,0,0.6,0c0.2,0,0.4,0,0.6,0c0.3,0,0.6,0,0.9,0c0.3,0,0.6,0.1,0.9,0.1c0.1,0,0.2,0.1,0.1,0.2
			c0,0.1-0.1,0.2-0.2,0.2h-0.2c-0.2,0-0.4,0-0.6,0.2c-0.2,0.1-0.3,0.3-0.3,0.6v7.6c0,0.3,0.1,0.5,0.2,0.7c0.1,0.2,0.3,0.4,0.4,0.5
			c0.2,0.1,0.4,0.2,0.6,0.3c0.2,0.1,0.5,0.1,0.7,0.1c0.5,0,1-0.1,1.5-0.4c0.5-0.3,0.8-0.6,1.1-1.1c0.1-0.1,0.2-0.1,0.3-0.1
			C39.5,23.3,39.6,23.4,39.6,23.6C39.6,23.5,39.6,23.6,39.6,23.6z"/>
		<path fill="#56BA50" d="M50.3,24.1c0,0.1,0,0.1,0,0.2c-0.1,0.5-0.1,1-0.1,1.4c0,0.4-0.1,0.8-0.1,1.1c-0.4,0-0.8-0.1-1.2-0.1
			c-0.4,0-0.8,0-1.2,0c-0.4,0-0.7,0-1.1,0c-0.4,0-0.7,0-1.1,0c-0.4,0-0.8,0-1.1,0c-0.4,0-0.7,0-1.1,0c-0.4,0-0.8,0-1.1,0.1
			c-0.4,0-0.7,0-1.1,0c-0.1,0-0.2-0.1-0.2-0.2c0-0.1,0.1-0.2,0.2-0.2c0.2,0,0.4-0.1,0.6-0.2c0.1-0.1,0.3-0.2,0.3-0.4
			c0.1-0.2,0.1-0.3,0.2-0.5c0-0.2,0.1-0.4,0.1-0.7V13.4c0-0.2,0-0.4-0.1-0.5c-0.1-0.1-0.1-0.2-0.2-0.3c-0.1-0.1-0.2-0.1-0.3-0.1
			c-0.1,0-0.2,0-0.3-0.1c-0.2,0-0.3,0-0.5-0.1c-0.1,0-0.2-0.1-0.3-0.3c0-0.1,0-0.1,0-0.2c0-0.1,0.1-0.1,0.2-0.1h2.8
			c0.4,0,0.7,0,1.1,0c0.4,0,0.7,0,1.1,0.1c0.1,0,0.2,0.1,0.1,0.2c0,0.1-0.1,0.2-0.2,0.2l-0.3,0c-0.3,0-0.6,0.1-0.8,0.2
			c-0.2,0.2-0.3,0.5-0.3,0.8v10.3c0,0.7,0.2,1.3,0.7,1.7c0.5,0.4,1,0.6,1.7,0.6c0.7,0,1.3-0.2,1.8-0.6c0.6-0.4,1-0.9,1.3-1.5
			c0,0,0.1-0.1,0.1-0.1c0.1,0,0.1,0,0.2,0c0,0,0.1,0,0.1,0.1c0,0,0.1,0.1,0,0.1C50.3,24,50.3,24,50.3,24.1z"/>
		<path fill="#56BA50" d="M62.9,25.6c-0.3,0-0.7,0-1,0c-0.2,0-0.5,0-0.7,0c-0.2,0-0.5,0-0.7,0c-0.1,0-0.2,0-0.2-0.1
			c0-0.1,0-0.1,0.1-0.2l0.2-0.2c-0.3-0.6-0.5-1.2-0.8-1.8c-0.3-0.6-0.5-1.2-0.8-1.8h-3.3c-0.1,0.2-0.2,0.5-0.4,0.8
			c-0.1,0.3-0.3,0.7-0.4,1c-0.1,0.3-0.2,0.7-0.3,0.9c-0.1,0.3-0.1,0.5-0.1,0.6c0,0.1,0.1,0.2,0.3,0.3c0.2,0,0.3,0.1,0.5,0.1
			c0.1,0,0.2,0.1,0.2,0.2c0,0.1-0.1,0.2-0.2,0.2l-3.6-0.1l0.1-0.4c0.1,0,0.3,0,0.4,0c0.1-0.1,0.3-0.1,0.4-0.3
			c0.1-0.1,0.3-0.2,0.4-0.4c0.1-0.1,0.2-0.3,0.3-0.4c0.3-0.7,0.6-1.3,0.8-2c0.3-0.7,0.6-1.4,0.8-2c0.4-1,0.8-1.9,1.2-2.9
			c0.4-0.9,0.8-1.9,1.2-2.8c0.1-0.1,0.2-0.1,0.3-0.1c0.1,0,0.2,0.1,0.3,0.3c0.1,0.1,0.2,0.3,0.3,0.5c0.1,0.2,0.2,0.3,0.3,0.5
			c0.1,0.2,0.2,0.4,0.2,0.5v0c0,0.1,0.1,0.2,0.1,0.3c0,0.1,0.1,0.1,0.1,0.2v0l0.9,2.1c0.4,1,0.8,2,1.3,3c0.4,1,0.9,2,1.4,2.9
			c0.2,0.3,0.4,0.5,0.7,0.6c0.3,0.1,0.6,0.2,0.9,0.2v0.4C63.6,25.6,63.2,25.6,62.9,25.6z M57.2,17.1c-0.2,0.6-0.4,1.2-0.6,1.7
			c-0.2,0.5-0.4,1.1-0.7,1.7h2.6L57.2,17.1z"/>
		<path fill="#56BA50" d="M77.6,14.9c-0.1,0-0.2,0-0.3,0.1h0c-0.2,0-0.3,0.1-0.5,0.2c-0.2,0.1-0.2,0.2-0.2,0.3c0,0.4,0,0.9,0,1.3
			c0,0.4,0,0.8,0,1.2c0,0.4,0,0.8,0,1.3c0,0.5,0,0.9,0,1.3c0,0.9,0,1.7,0,2.6c0,0.8-0.1,1.7-0.2,2.6c0,0.1-0.1,0.1-0.1,0.2
			c-0.1,0-0.2,0-0.2,0c-1.5-1.1-3-2.4-4.3-3.7c-1.4-1.3-2.7-2.6-4-3.9h0l-1.1-1c0,0.1,0,0.2,0,0.4c0,0.1,0,0.3,0,0.4
			c0,0.5,0,1,0,1.5c0,0.5,0,1,0.1,1.5c0,0.5,0,1,0.1,1.5c0,0.5,0,1,0,1.5c0,0.2,0,0.4,0.1,0.6c0,0.1,0.1,0.2,0.2,0.3
			c0.1,0.1,0.2,0.1,0.2,0.1c0.1,0,0.2,0,0.3,0.1c0.1,0,0.3,0.1,0.4,0.1c0.1,0,0.3,0.1,0.4,0.2c0.1,0.1,0.1,0.1,0.1,0.2
			c0,0.1-0.1,0.1-0.2,0.1c-0.2,0-0.5,0-0.7,0c-0.2,0-0.5,0-0.7,0h-0.7c-0.3,0-0.6,0-0.9,0c-0.3,0-0.6-0.1-0.9-0.1
			c-0.1,0-0.2-0.1-0.2-0.2c0-0.1,0.1-0.2,0.2-0.2h0.2c0.2,0,0.4,0,0.6-0.2c0.2-0.1,0.2-0.3,0.2-0.6v-9.6c0-0.1,0-0.2,0.1-0.3
			c0.1-0.1,0.1-0.1,0.2-0.2c0,0,0.1,0,0.2,0c0.1,0,0.1,0,0.1,0.1c1.6,1.4,3.1,2.9,4.6,4.3c1.5,1.5,3.1,2.9,4.6,4.4
			c0-0.4,0-0.8,0-1.2c0-0.4,0-0.8,0-1.2c0-0.3,0-0.7-0.1-1.1c0-0.4,0-0.7,0-1.1c0-0.2,0-0.4,0-0.6c0-0.2,0-0.4,0-0.6v-1.2
			c0-0.2,0-0.4-0.1-0.5c-0.1-0.1-0.1-0.2-0.2-0.3c-0.1-0.1-0.2-0.1-0.3-0.1c-0.1,0-0.2,0-0.3-0.1c-0.3,0-0.5-0.1-0.6-0.2
			c-0.1,0-0.1-0.1-0.1-0.2c0-0.1,0.1-0.1,0.2-0.1l0.7,0c0.5,0,1,0,1.5,0c0.5,0,1,0,1.5,0.1L77.6,14.9z"/>
		<path fill="#56BA50" d="M91,22.7c-0.4,0.7-0.9,1.4-1.6,1.8c-0.7,0.5-1.4,0.8-2.3,1c-0.9,0.2-1.8,0.3-2.8,0.3c-0.4,0-0.8,0-1.2,0
			c-0.4,0-0.8,0-1.2-0.1c-0.4,0-0.9-0.1-1.4-0.1c-0.5,0-0.9,0-1.3,0c-0.1,0-0.2-0.1-0.2-0.2c0-0.1,0-0.2,0.2-0.2
			c0.4-0.1,0.7-0.2,0.8-0.4c0.1-0.2,0.2-0.5,0.2-1v-8.3c0-0.3-0.1-0.4-0.2-0.5c-0.2-0.1-0.3-0.1-0.5-0.1c-0.1,0-0.2-0.1-0.4-0.1
			c-0.1,0-0.2-0.1-0.2-0.2c0-0.1,0-0.1,0-0.2c0,0,0.1-0.1,0.2-0.1c0.2,0,0.4,0,0.6,0c0.2,0,0.4,0,0.6,0c0.2,0,0.5,0,0.8,0
			c0.3,0,0.5,0,0.8,0c0.6,0,1.2,0,1.8-0.1c0.3,0,0.6,0,0.9,0c0.3,0,0.6,0,0.9,0c0.5,0,1.2,0.1,1.9,0.3c0.7,0.2,1.3,0.5,2,0.9
			c0.6,0.4,1.2,0.8,1.6,1.4c0.5,0.5,0.7,1.1,0.8,1.7c0,0.2,0,0.4,0,0.6c0,0.2,0,0.4,0,0.6C91.6,21,91.4,21.9,91,22.7z M89.2,18.2
			c-0.3-0.7-0.8-1.2-1.3-1.6c-0.6-0.4-1.2-0.7-1.9-1c-0.7-0.2-1.5-0.3-2.3-0.3c-0.3,0-0.5,0-0.8,0c-0.3,0-0.5,0.1-0.8,0.2v7.9
			c0,0.4,0.1,0.7,0.2,0.9c0.1,0.2,0.3,0.4,0.4,0.5c0.2,0.1,0.4,0.2,0.7,0.2c0.3,0,0.6,0,0.9,0c0.7,0,1.4-0.1,2.1-0.2
			c0.7-0.2,1.2-0.4,1.8-0.8c0.5-0.4,0.9-0.8,1.2-1.4c0.3-0.6,0.4-1.3,0.4-2.1C89.7,19.6,89.5,18.9,89.2,18.2z"/>
		<path fill="#56BA50" d="M98.8,24c-0.3,0.4-0.7,0.7-1.2,1c-0.5,0.3-1,0.5-1.5,0.6c-0.5,0.1-1,0.2-1.5,0.2c-0.2,0-0.5,0-0.7-0.1
			c-0.3,0-0.5-0.1-0.7-0.2c-0.2-0.1-0.4-0.3-0.6-0.4c-0.2-0.2-0.2-0.4-0.2-0.7c0-0.1,0-0.3,0.1-0.4c0-0.1,0.1-0.3,0.1-0.4
			c0.1-0.1,0.1-0.3,0.1-0.6c0-0.1,0-0.1,0.1-0.1c0.1,0,0.1,0,0.2,0c0.1,0,0.1,0,0.2,0c0,0,0.1,0.1,0.1,0.1v0.2c0,0.3,0,0.5,0.2,0.7
			c0.1,0.2,0.3,0.4,0.5,0.5c0.2,0.1,0.5,0.2,0.7,0.3c0.3,0.1,0.5,0.1,0.8,0.1c0.2,0,0.5,0,0.7-0.1c0.3-0.1,0.5-0.2,0.7-0.3
			c0.2-0.1,0.4-0.3,0.6-0.5c0.1-0.2,0.2-0.4,0.2-0.7c0-0.2-0.1-0.5-0.2-0.7c-0.1-0.2-0.3-0.5-0.5-0.8c-0.2-0.3-0.5-0.5-0.8-0.8
			c-0.3-0.2-0.6-0.5-0.8-0.7c-0.3-0.3-0.6-0.5-1-0.8c-0.3-0.3-0.6-0.6-0.9-0.9c-0.3-0.3-0.5-0.6-0.6-0.9c-0.2-0.3-0.2-0.6-0.2-0.9
			c0-0.5,0.2-0.9,0.5-1.3c0.3-0.3,0.7-0.6,1.2-0.8c0.5-0.2,0.9-0.3,1.5-0.4c0.5-0.1,0.9-0.1,1.3-0.1c0.6,0,1.2,0.1,1.7,0.2
			c0.1,0,0.2,0.1,0.2,0.2v0.6c0,0.3,0,0.5,0,0.8c0,0.3-0.1,0.5-0.3,0.7c-0.1,0.1-0.2,0.1-0.3,0.1c-0.1,0-0.2-0.1-0.2-0.2
			c0-0.3-0.1-0.5-0.2-0.7c-0.1-0.2-0.3-0.4-0.4-0.5c-0.2-0.1-0.4-0.2-0.6-0.3C96.8,15,96.6,15,96.3,15c-0.2,0-0.5,0-0.7,0.1
			c-0.2,0.1-0.4,0.2-0.6,0.3c-0.2,0.1-0.3,0.3-0.4,0.5c-0.1,0.2-0.2,0.4-0.2,0.7c0,0.2,0.1,0.5,0.2,0.7c0.1,0.2,0.3,0.5,0.5,0.7
			c0.2,0.2,0.4,0.4,0.7,0.6c0.3,0.2,0.5,0.4,0.8,0.6c0.3,0.2,0.6,0.5,1,0.7c0.3,0.3,0.6,0.5,0.9,0.8c0.3,0.3,0.5,0.6,0.6,0.9
			c0.2,0.3,0.2,0.6,0.2,1C99.3,23.2,99.2,23.6,98.8,24z"/>
	</g>
	<g>
		<path fill="#56BA50" d="M50,0c0,0-21.2,8.7-43.6,10.8c0,0,23.9-1.4,43.6-9.1c19.7,7.7,43.6,9.1,43.6,9.1C71.2,8.7,50,0,50,0z"/>
		<g>
			<rect x="47.2" y="4.2" fill="#56BA50" width="2.4" height="2.4"/>
			<rect x="50.5" y="4.2" fill="#56BA50" width="2.4" height="2.4"/>
			<rect x="47.2" y="7.5" fill="#56BA50" width="2.4" height="2.4"/>
			<rect x="50.5" y="7.5" fill="#56BA50" width="2.4" height="2.4"/>
		</g>
	</g>
	<g>
		<g>
			<path fill="#336699" d="M38.3,32.3c-0.1,0-0.2,0-0.3,0c-0.1,0-0.3,0-0.4-0.1c-0.1-0.1-0.2-0.1-0.3-0.2c-0.1-0.1-0.2-0.2-0.3-0.3
				c-0.1-0.1-0.2-0.2-0.3-0.3c-0.1-0.1-0.2-0.2-0.2-0.3c-0.1-0.1-0.2-0.2-0.2-0.3c-0.1-0.1-0.1-0.1-0.2-0.1c-0.1,0-0.2,0-0.3,0
				c0,0-0.1,0-0.1,0c0,0-0.1,0-0.1,0v1c0,0,0,0,0,0.1c0,0,0,0.1,0,0.1c0,0,0,0.1,0,0.1c0,0,0,0.1,0,0.1c0,0,0,0,0.1,0
				c0,0,0.1,0,0.1,0c0,0,0.1,0,0.1,0c0,0,0.1,0,0.1,0.1c0,0,0,0,0,0.1c0,0,0,0-0.1,0c-0.2,0-0.4,0-0.6,0c-0.2,0-0.4,0-0.6,0
				c0,0-0.1,0-0.1,0c0,0,0,0,0.1-0.1c0.1,0,0.1,0,0.2,0c0,0,0.1,0,0.1-0.1c0,0,0-0.1,0-0.1c0-0.1,0-0.1,0-0.2v-2.9
				c0-0.1,0-0.1,0-0.1c0,0,0-0.1-0.1-0.1c0,0,0,0-0.1,0c0,0,0,0-0.1,0c0,0-0.1,0-0.1,0c0,0-0.1,0-0.1-0.1c0,0,0,0,0,0c0,0,0,0,0.1,0
				h0.1h0.3c0.1,0,0.1,0,0.2,0c0.1,0,0.1,0,0.2,0c0,0,0.1,0,0.1,0c0,0,0.1,0,0.1,0H36c0.1,0,0.3,0,0.4,0c0.1,0,0.3,0.1,0.4,0.1
				c0.1,0.1,0.2,0.1,0.3,0.2c0.1,0.1,0.2,0.3,0.2,0.4c0,0,0,0,0,0.1c0,0,0,0.1,0,0.1c0,0.1,0,0.2-0.1,0.3c0,0.1-0.1,0.2-0.1,0.3
				C37.1,30,37,30.1,37,30.2c-0.1,0.1-0.1,0.2-0.2,0.2c0.1,0.1,0.1,0.1,0.2,0.2c0.1,0.1,0.1,0.2,0.2,0.3c0.1,0.1,0.2,0.3,0.3,0.4
				c0.1,0.2,0.2,0.3,0.4,0.4c0.1,0.1,0.3,0.2,0.4,0.3c0.1,0.1,0.3,0.1,0.4,0.1l0,0.1C38.5,32.2,38.4,32.2,38.3,32.3z M36.7,29.1
				c0-0.1-0.1-0.2-0.2-0.3c-0.1-0.1-0.2-0.2-0.3-0.2c-0.1-0.1-0.2-0.1-0.4-0.1c-0.1,0-0.2,0-0.3,0v1.7c0.1,0,0.3,0,0.4,0
				c0.1,0,0.1,0,0.2,0c0.1,0,0.1,0,0.2-0.1c0,0,0.1-0.1,0.1-0.1c0-0.1,0.1-0.1,0.1-0.2c0-0.1,0-0.1,0-0.2c0-0.1,0-0.1,0-0.2
				C36.8,29.4,36.7,29.3,36.7,29.1z"/>
			<path fill="#336699" d="M40.5,31.8L40.5,31.8c-0.1,0-0.1,0-0.2,0s-0.1,0-0.2,0c-0.1,0-0.1,0-0.2,0c-0.1,0-0.1,0-0.1,0
				c-0.1,0-0.1,0-0.2,0c-0.1,0-0.1,0-0.2,0c-0.1,0-0.3,0-0.4,0c-0.1,0-0.3,0-0.4,0c0,0,0,0,0-0.1c0,0,0,0,0.1,0c0.1,0,0.2,0,0.2-0.1
				c0-0.1,0-0.1,0-0.2v-2.2c0-0.1,0-0.1-0.1-0.1c0,0-0.1,0-0.1,0c0,0-0.1,0-0.1,0c0,0-0.1,0-0.1,0c0,0,0,0,0-0.1c0,0,0,0,0.1,0
				s0.1,0,0.1,0c0.1,0,0.1,0,0.2,0c0.1,0,0.2,0,0.3,0c0.1,0,0.2,0,0.4,0c0.2,0,0.3,0,0.5,0c0.1,0,0.2,0,0.3,0c0,0,0,0,0.1,0
				c0,0,0,0,0,0c0,0.1,0,0.1,0,0.2c0,0.1,0,0.1,0,0.2c0,0,0,0,0,0.1c0,0,0,0,0,0.1c0,0,0,0-0.1,0c0,0-0.1,0-0.1,0c0-0.1,0-0.1,0-0.1
				c0,0-0.1-0.1-0.1-0.1c0,0-0.1,0-0.1,0c0,0-0.1,0-0.1,0c0,0-0.1,0-0.1,0c0,0-0.1,0-0.1,0c0,0-0.1,0-0.1,0c0,0-0.1,0-0.1,0h-0.1v1
				h0.6c0,0,0,0,0.1,0c0,0,0.1,0,0.1,0h0c0,0,0.1,0,0.1-0.1c0,0,0,0,0.1,0c0,0,0,0,0.1,0s0,0,0,0c0,0,0,0.1,0,0.2c0,0.1,0,0.1,0,0.2
				c0,0,0,0.1,0,0.1c0,0,0,0.1,0,0.1c0,0,0,0,0,0c0,0,0,0-0.1,0c0,0-0.1,0-0.1-0.1c0,0,0,0,0,0c0,0,0-0.1,0-0.1c0,0,0,0,0-0.1
				c0,0-0.1,0-0.1,0c-0.1,0-0.1,0-0.2,0c-0.1,0-0.1,0-0.2,0c-0.1,0-0.1,0-0.2,0h-0.1v1c0.1,0.1,0.1,0.1,0.2,0.2
				c0.1,0,0.2,0.1,0.3,0.1c0.1,0,0.2,0,0.3-0.1c0.1-0.1,0.2-0.1,0.2-0.3c0,0,0,0,0,0c0,0,0,0,0,0c0,0,0,0,0,0c0,0,0,0,0,0L40.5,31.8
				z"/>
			<path fill="#336699" d="M43.9,31.9c-0.1,0-0.2,0-0.3,0c-0.1,0-0.1,0-0.2,0c-0.1,0-0.1,0-0.2,0c0,0,0,0-0.1,0c0,0,0,0,0-0.1l0-0.1
				c-0.1-0.2-0.1-0.3-0.2-0.5c-0.1-0.2-0.1-0.3-0.2-0.5H42c0,0.1-0.1,0.1-0.1,0.2c0,0.1-0.1,0.2-0.1,0.3c0,0.1-0.1,0.2-0.1,0.2
				c0,0.1,0,0.1,0,0.2c0,0,0,0.1,0.1,0.1c0,0,0.1,0,0.1,0c0,0,0.1,0,0.1,0.1c0,0,0,0-0.1,0l-0.9,0l0-0.1c0,0,0.1,0,0.1,0
				c0,0,0.1,0,0.1-0.1c0,0,0.1-0.1,0.1-0.1c0,0,0.1-0.1,0.1-0.1c0.1-0.2,0.1-0.3,0.2-0.5c0.1-0.2,0.1-0.4,0.2-0.5
				c0.1-0.3,0.2-0.5,0.3-0.7c0.1-0.2,0.2-0.5,0.3-0.7c0,0,0,0,0.1,0c0,0,0,0,0.1,0.1c0,0,0,0.1,0.1,0.1c0,0,0,0.1,0.1,0.1
				c0,0,0,0.1,0.1,0.1v0c0,0,0,0,0,0.1c0,0,0,0,0,0v0L43,30c0.1,0.3,0.2,0.5,0.3,0.8c0.1,0.3,0.2,0.5,0.4,0.8c0,0.1,0.1,0.1,0.2,0.2
				c0.1,0,0.2,0,0.2,0v0.1C44,31.9,44,31.9,43.9,31.9z M42.4,29.7c-0.1,0.2-0.1,0.3-0.2,0.4c0,0.1-0.1,0.3-0.2,0.4h0.7L42.4,29.7z"
				/>
			<path fill="#336699" d="M46.6,31.4C46.6,31.4,46.6,31.4,46.6,31.4c0,0.1,0,0.2,0,0.2c0,0.1,0,0.1-0.1,0.2c0,0,0,0,0,0
				c0,0,0,0,0,0l0,0.1c-0.1,0-0.2,0-0.2,0c-0.1,0-0.2,0-0.2,0c-0.1,0-0.2,0-0.3,0c-0.1,0-0.2,0-0.2,0c-0.1,0-0.1,0-0.2,0
				c-0.1,0-0.1,0-0.2,0c-0.2,0-0.4,0-0.5,0c0,0-0.1,0-0.1-0.1c0,0,0,0,0.1,0c0.1,0,0.2,0,0.2-0.1c0-0.1,0-0.1,0-0.2v-2.2
				c0-0.1,0-0.1-0.1-0.2c0,0-0.1,0-0.1,0c0,0-0.1,0-0.1,0c0,0-0.1,0-0.1,0c0,0,0,0,0,0c0,0,0,0,0.1,0h0.3c0.1,0,0.1,0,0.2,0
				c0.1,0,0.1,0,0.2,0c0.1,0,0.2,0,0.2,0c0.1,0,0.2,0,0.2,0c0,0,0,0,0,0.1c0,0,0,0-0.1,0h-0.1c-0.1,0-0.1,0-0.2,0
				c0,0-0.1,0.1-0.1,0.1v2c0,0.1,0,0.1,0,0.2c0,0.1,0.1,0.1,0.1,0.1c0,0,0.1,0.1,0.2,0.1c0.1,0,0.1,0,0.2,0c0.1,0,0.3,0,0.4-0.1
				s0.2-0.2,0.3-0.3C46.5,31.3,46.5,31.3,46.6,31.4C46.6,31.3,46.6,31.3,46.6,31.4C46.6,31.3,46.6,31.3,46.6,31.4z"/>
			<path fill="#336699" d="M50.4,31.7c0,0.1,0,0.2,0,0.3l0,0.1c0,0,0,0-0.1,0l-0.1,0h-0.7c-0.1,0-0.2,0-0.2,0c-0.1,0-0.2,0-0.2,0
				c-0.1,0-0.3,0-0.4,0c-0.1,0-0.3,0-0.4,0c0,0-0.1,0-0.1,0c0,0,0,0,0.1,0c0.1,0,0.1,0,0.2,0c0,0,0.1-0.1,0.1-0.1c0,0,0-0.1,0-0.1
				c0-0.1,0-0.1,0-0.2v-3c0,0,0-0.1,0-0.1c0,0,0-0.1,0-0.1c0,0,0,0-0.1,0c0,0,0,0-0.1,0c0,0-0.1,0-0.1,0c0,0-0.1,0-0.1-0.1
				c0,0,0,0,0-0.1c0,0,0,0,0.1,0h2c0,0,0.1,0,0.1,0c0,0,0,0,0.1,0c0,0,0,0,0,0c0,0.1,0,0.2,0,0.3c0,0.1,0,0.2-0.1,0.3c0,0,0,0,0,0
				c0,0,0,0,0,0c0,0,0,0-0.1,0c0,0-0.1,0-0.1,0c0-0.2-0.1-0.3-0.2-0.3c-0.1-0.1-0.2-0.1-0.4-0.1c0,0-0.1,0-0.1,0c0,0-0.1,0-0.1,0
				c0,0-0.1,0-0.1,0c0,0-0.1,0-0.1,0c0,0,0,0-0.1,0c0,0,0,0-0.1,0v1.4h0.8c0,0,0,0,0.1,0c0,0,0.1,0,0.1,0c0,0,0.1,0,0.1,0
				s0.1,0,0.1,0c0,0,0,0,0.1,0c0,0,0,0,0,0c0,0.1,0,0.1,0,0.2c0,0.1,0,0.1,0,0.2c0,0.1,0,0.3,0,0.4c0,0,0,0,0,0c0,0,0,0-0.1,0
				c0,0,0,0-0.1-0.1c0,0,0-0.1,0-0.1c0,0,0-0.1,0-0.1c0,0,0-0.1,0-0.1c0,0-0.1,0-0.1-0.1c-0.1,0-0.1,0-0.2,0c-0.1,0-0.2,0-0.2,0
				c-0.1,0-0.1,0-0.2,0h-0.1v1.4c0.1,0.1,0.2,0.2,0.3,0.2c0.1,0,0.2,0.1,0.4,0.1c0.2,0,0.3,0,0.4-0.1c0.1-0.1,0.2-0.2,0.2-0.4
				c0,0,0,0,0,0c0,0,0,0,0,0c0,0,0,0,0,0c0,0,0,0,0,0C50.5,31.6,50.5,31.6,50.4,31.7z"/>
			<path fill="#336699" d="M52.4,31.5c-0.1,0.1-0.2,0.2-0.3,0.3c-0.1,0.1-0.3,0.1-0.4,0.2c-0.1,0-0.3,0.1-0.4,0.1
				c-0.1,0-0.1,0-0.2,0c-0.1,0-0.1,0-0.2-0.1c-0.1,0-0.1-0.1-0.1-0.1c0,0-0.1-0.1-0.1-0.2c0,0,0-0.1,0-0.1c0,0,0-0.1,0-0.1
				c0,0,0-0.1,0-0.1c0,0,0,0,0,0c0,0,0,0,0,0c0,0,0,0,0,0c0,0,0,0,0,0v0.1c0,0.1,0,0.1,0,0.2c0,0.1,0.1,0.1,0.1,0.1
				c0.1,0,0.1,0.1,0.2,0.1c0.1,0,0.1,0,0.2,0c0.1,0,0.1,0,0.2,0c0.1,0,0.1,0,0.2-0.1c0.1,0,0.1-0.1,0.1-0.1s0.1-0.1,0.1-0.2
				c0-0.1,0-0.1-0.1-0.2c0-0.1-0.1-0.1-0.1-0.2s-0.1-0.1-0.2-0.2c-0.1-0.1-0.1-0.1-0.2-0.2c-0.1-0.1-0.2-0.1-0.3-0.2
				c-0.1-0.1-0.2-0.1-0.2-0.2c-0.1-0.1-0.1-0.2-0.2-0.2c0-0.1-0.1-0.2-0.1-0.2c0-0.1,0-0.2,0.1-0.3c0.1-0.1,0.2-0.2,0.3-0.2
				c0.1-0.1,0.2-0.1,0.4-0.1c0.1,0,0.2,0,0.3,0c0.2,0,0.3,0,0.4,0c0,0,0.1,0,0,0.1v0.1c0,0.1,0,0.1,0,0.2c0,0.1,0,0.1-0.1,0.2
				c0,0,0,0-0.1,0s0,0,0,0c0-0.1,0-0.1,0-0.2c0,0-0.1-0.1-0.1-0.1c0,0-0.1-0.1-0.2-0.1c-0.1,0-0.1,0-0.2,0c-0.1,0-0.1,0-0.2,0
				c-0.1,0-0.1,0-0.2,0.1c0,0-0.1,0.1-0.1,0.1c0,0.1,0,0.1,0,0.2c0,0.1,0,0.1,0.1,0.2c0,0.1,0.1,0.1,0.1,0.2
				c0.1,0.1,0.1,0.1,0.2,0.2c0.1,0.1,0.1,0.1,0.2,0.2c0.1,0.1,0.2,0.1,0.2,0.2c0.1,0.1,0.2,0.1,0.2,0.2c0.1,0.1,0.1,0.2,0.2,0.2
				c0,0.1,0.1,0.2,0.1,0.3C52.5,31.2,52.5,31.4,52.4,31.5z"/>
			<path fill="#336699" d="M55.5,29.5C55.5,29.5,55.4,29.5,55.5,29.5c-0.1,0-0.1,0-0.1,0c0-0.1-0.1-0.2-0.2-0.2
				c-0.1,0-0.2-0.1-0.3-0.1c0,0-0.1,0-0.1,0c0,0-0.1,0-0.1,0c0,0-0.1,0-0.1,0c0,0-0.1,0-0.1,0c0,0,0,0-0.1,0c0,0,0,0,0,0v2.2
				c0,0,0,0,0,0.1c0,0,0,0.1,0,0.1c0,0,0,0.1,0,0.1c0,0,0,0,0,0h0c0,0,0,0,0.1,0c0,0,0.1,0,0.1,0c0,0,0.1,0,0.1,0c0,0,0.1,0,0.1,0.1
				c0,0,0,0,0,0c0,0,0,0-0.1,0c-0.2,0-0.4,0-0.5,0c-0.2,0-0.4,0-0.5,0c0,0,0,0-0.1,0c0,0,0,0,0-0.1c0.1,0,0.1,0,0.1,0
				c0,0,0.1,0,0.1,0c0,0,0-0.1,0-0.1c0,0,0-0.1,0-0.2v-2.2h-0.7c-0.1,0-0.1,0-0.2,0.1c-0.1,0-0.1,0.1-0.2,0.2c0,0,0,0-0.1,0
				c0,0,0,0-0.1,0c0,0,0,0,0-0.1c0,0,0-0.1,0-0.2c0-0.1,0-0.1,0.1-0.2c0,0,0,0,0-0.1c0,0,0,0,0-0.1c0,0,0,0,0,0c0,0,0,0,0.1,0
				c0,0,0,0,0.1,0c0,0,0.1,0,0.1,0c0,0,0.1,0,0.1,0c0,0,0.1,0,0.1,0h1.9c0,0,0,0,0.1,0c0,0,0.1,0,0.1,0h0c0,0,0,0,0,0c0,0,0,0,0.1,0
				c0,0,0.1,0,0.1,0v0.1C55.5,29.2,55.5,29.4,55.5,29.5z"/>
			<path fill="#336699" d="M58.4,31.9c-0.1,0-0.2,0-0.3,0c-0.1,0-0.1,0-0.2,0c-0.1,0-0.1,0-0.2,0c0,0,0,0-0.1,0c0,0,0,0,0-0.1l0-0.1
				c-0.1-0.2-0.1-0.3-0.2-0.5c-0.1-0.2-0.1-0.3-0.2-0.5h-0.9c0,0.1-0.1,0.1-0.1,0.2c0,0.1-0.1,0.2-0.1,0.3c0,0.1-0.1,0.2-0.1,0.2
				c0,0.1,0,0.1,0,0.2c0,0,0,0.1,0.1,0.1c0,0,0.1,0,0.1,0c0,0,0.1,0,0.1,0.1c0,0,0,0-0.1,0l-0.9,0l0-0.1c0,0,0.1,0,0.1,0
				c0,0,0.1,0,0.1-0.1c0,0,0.1-0.1,0.1-0.1c0,0,0.1-0.1,0.1-0.1c0.1-0.2,0.1-0.3,0.2-0.5c0.1-0.2,0.1-0.4,0.2-0.5
				c0.1-0.3,0.2-0.5,0.3-0.7c0.1-0.2,0.2-0.5,0.3-0.7c0,0,0,0,0.1,0c0,0,0,0,0.1,0.1c0,0,0,0.1,0.1,0.1c0,0,0,0.1,0.1,0.1
				c0,0,0,0.1,0.1,0.1v0c0,0,0,0,0,0.1c0,0,0,0,0,0v0l0.2,0.5c0.1,0.3,0.2,0.5,0.3,0.8c0.1,0.3,0.2,0.5,0.4,0.8
				c0,0.1,0.1,0.1,0.2,0.2c0.1,0,0.2,0,0.2,0v0.1C58.6,31.9,58.5,31.9,58.4,31.9z M56.9,29.7c-0.1,0.2-0.1,0.3-0.2,0.4
				c0,0.1-0.1,0.3-0.2,0.4h0.7L56.9,29.7z"/>
			<path fill="#336699" d="M61,29.5C61,29.5,61,29.5,61,29.5c-0.1,0-0.1,0-0.1,0c0-0.1-0.1-0.2-0.2-0.2c-0.1,0-0.2-0.1-0.3-0.1
				c0,0-0.1,0-0.1,0c0,0-0.1,0-0.1,0c0,0-0.1,0-0.1,0c0,0-0.1,0-0.1,0c0,0,0,0-0.1,0c0,0,0,0,0,0v2.2c0,0,0,0,0,0.1c0,0,0,0.1,0,0.1
				c0,0,0,0.1,0,0.1c0,0,0,0,0,0h0c0,0,0,0,0.1,0c0,0,0.1,0,0.1,0c0,0,0.1,0,0.1,0c0,0,0.1,0,0.1,0.1c0,0,0,0,0,0c0,0,0,0-0.1,0
				c-0.2,0-0.4,0-0.5,0c-0.2,0-0.4,0-0.5,0c0,0,0,0-0.1,0c0,0,0,0,0-0.1c0.1,0,0.1,0,0.1,0c0,0,0.1,0,0.1,0c0,0,0-0.1,0-0.1
				c0,0,0-0.1,0-0.2v-2.2h-0.7c-0.1,0-0.1,0-0.2,0.1c-0.1,0-0.1,0.1-0.2,0.2c0,0,0,0-0.1,0c0,0,0,0-0.1,0c0,0,0,0,0-0.1
				c0,0,0-0.1,0-0.2c0-0.1,0-0.1,0.1-0.2c0,0,0,0,0-0.1c0,0,0,0,0-0.1c0,0,0,0,0,0c0,0,0,0,0.1,0c0,0,0,0,0.1,0c0,0,0.1,0,0.1,0
				c0,0,0.1,0,0.1,0c0,0,0.1,0,0.1,0h1.9c0,0,0,0,0.1,0c0,0,0.1,0,0.1,0h0c0,0,0,0,0,0c0,0,0,0,0.1,0c0,0,0.1,0,0.1,0v0.1
				C61.1,29.2,61.1,29.4,61,29.5z"/>
			<path fill="#336699" d="M63.3,31.8L63.3,31.8c-0.1,0-0.1,0-0.2,0s-0.1,0-0.2,0c-0.1,0-0.1,0-0.2,0c-0.1,0-0.1,0-0.1,0
				c-0.1,0-0.1,0-0.2,0c-0.1,0-0.1,0-0.2,0c-0.1,0-0.3,0-0.4,0c-0.1,0-0.3,0-0.4,0c0,0,0,0,0-0.1c0,0,0,0,0.1,0c0.1,0,0.2,0,0.2-0.1
				c0-0.1,0-0.1,0-0.2v-2.2c0-0.1,0-0.1-0.1-0.1c0,0-0.1,0-0.1,0c0,0-0.1,0-0.1,0c0,0-0.1,0-0.1,0c0,0,0,0,0-0.1c0,0,0,0,0.1,0
				c0,0,0.1,0,0.1,0c0.1,0,0.1,0,0.2,0c0.1,0,0.2,0,0.3,0c0.1,0,0.2,0,0.4,0c0.2,0,0.3,0,0.5,0c0.1,0,0.2,0,0.3,0c0,0,0,0,0.1,0
				c0,0,0,0,0,0c0,0.1,0,0.1,0,0.2c0,0.1,0,0.1,0,0.2c0,0,0,0,0,0.1c0,0,0,0,0,0.1c0,0,0,0-0.1,0s-0.1,0-0.1,0c0-0.1,0-0.1,0-0.1
				c0,0-0.1-0.1-0.1-0.1c0,0-0.1,0-0.1,0s-0.1,0-0.1,0c0,0-0.1,0-0.1,0c0,0-0.1,0-0.1,0c0,0-0.1,0-0.1,0c0,0-0.1,0-0.1,0h-0.1v1h0.6
				c0,0,0,0,0.1,0c0,0,0.1,0,0.1,0h0c0,0,0.1,0,0.1-0.1c0,0,0,0,0.1,0c0,0,0,0,0.1,0c0,0,0,0,0,0c0,0,0,0.1,0,0.2c0,0.1,0,0.1,0,0.2
				c0,0,0,0.1,0,0.1c0,0,0,0.1,0,0.1c0,0,0,0,0,0c0,0,0,0-0.1,0c0,0-0.1,0-0.1-0.1c0,0,0,0,0,0c0,0,0-0.1,0-0.1c0,0,0,0,0-0.1
				c0,0-0.1,0-0.1,0c-0.1,0-0.1,0-0.2,0c-0.1,0-0.1,0-0.2,0c-0.1,0-0.1,0-0.2,0h-0.1v1c0.1,0.1,0.1,0.1,0.2,0.2
				c0.1,0,0.2,0.1,0.3,0.1c0.1,0,0.2,0,0.3-0.1c0.1-0.1,0.2-0.1,0.2-0.3c0,0,0,0,0,0c0,0,0,0,0,0c0,0,0,0,0,0c0,0,0,0,0,0L63.3,31.8
				z"/>
			<path fill="#336699" d="M65.2,31.5c-0.1,0.1-0.2,0.2-0.3,0.3c-0.1,0.1-0.3,0.1-0.4,0.2c-0.1,0-0.3,0.1-0.4,0.1
				c-0.1,0-0.1,0-0.2,0c-0.1,0-0.1,0-0.2-0.1c-0.1,0-0.1-0.1-0.1-0.1c0,0-0.1-0.1-0.1-0.2c0,0,0-0.1,0-0.1c0,0,0-0.1,0-0.1
				c0,0,0-0.1,0-0.1c0,0,0,0,0,0c0,0,0,0,0,0s0,0,0,0c0,0,0,0,0,0v0.1c0,0.1,0,0.1,0,0.2c0,0.1,0.1,0.1,0.1,0.1
				c0.1,0,0.1,0.1,0.2,0.1c0.1,0,0.1,0,0.2,0c0.1,0,0.1,0,0.2,0c0.1,0,0.1,0,0.2-0.1c0.1,0,0.1-0.1,0.1-0.1s0.1-0.1,0.1-0.2
				c0-0.1,0-0.1-0.1-0.2c0-0.1-0.1-0.1-0.1-0.2s-0.1-0.1-0.2-0.2s-0.1-0.1-0.2-0.2c-0.1-0.1-0.2-0.1-0.3-0.2
				c-0.1-0.1-0.2-0.1-0.2-0.2c-0.1-0.1-0.1-0.2-0.2-0.2c0-0.1-0.1-0.2-0.1-0.2c0-0.1,0-0.2,0.1-0.3c0.1-0.1,0.2-0.2,0.3-0.2
				c0.1-0.1,0.2-0.1,0.4-0.1c0.1,0,0.2,0,0.3,0c0.2,0,0.3,0,0.4,0c0,0,0.1,0,0,0.1v0.1c0,0.1,0,0.1,0,0.2c0,0.1,0,0.1-0.1,0.2
				c0,0,0,0-0.1,0s0,0,0,0c0-0.1,0-0.1,0-0.2c0,0-0.1-0.1-0.1-0.1c0,0-0.1-0.1-0.2-0.1c-0.1,0-0.1,0-0.2,0c-0.1,0-0.1,0-0.2,0
				c-0.1,0-0.1,0-0.2,0.1c0,0-0.1,0.1-0.1,0.1c0,0.1,0,0.1,0,0.2c0,0.1,0,0.1,0.1,0.2c0,0.1,0.1,0.1,0.1,0.2
				c0.1,0.1,0.1,0.1,0.2,0.2c0.1,0.1,0.1,0.1,0.2,0.2c0.1,0.1,0.2,0.1,0.2,0.2c0.1,0.1,0.2,0.1,0.2,0.2c0.1,0.1,0.1,0.2,0.2,0.2
				c0,0.1,0.1,0.2,0.1,0.3C65.4,31.2,65.3,31.4,65.2,31.5z"/>
		</g>
		<polygon fill="#336699" points="99.7,30.3 83.4,30.5 67.1,30.7 67.1,30.3 67.1,29.8 83.4,30.1 		"/>
		<polygon fill="#336699" points="0.3,30.3 16.7,30.1 33.1,29.8 33.1,30.3 33.1,30.7 16.7,30.5 		"/>
	</g>
</g>
</svg>
